<?xml version="1.0" encoding="UTF-8" standalone="no"?>
<!DOCTYPE svg PUBLIC "-//W3C//DTD SVG 1.1//EN" "http://www.w3.org/Graphics/SVG/1.1/DTD/svg11.dtd">
<svg xmlns="http://www.w3.org/2000/svg" xmlns:xlink="http://www.w3.org/1999/xlink" version="1.1" width="496pt" height="199pt" viewBox="0 0 496 199">
<g enable-background="new">
<g>
<g id="Layer-1" data-name="Artifact">
<clipPath id="cp0">
<path transform="matrix(1,0,0,-1,-139,374)" d="M 0 .00012207 L 960 .00012207 L 960 540.0001 L 0 540.0001 Z " fill-rule="evenodd"/>
</clipPath>
<g clip-path="url(#cp0)">
<path transform="matrix(1,0,0,-1,-139,374)" d="M 0 .000061035 L 960 .000061035 L 960 540.00009 L 0 540.00009 Z " fill="#ffffff" fill-rule="evenodd"/>
</g>
</g>
<g id="Layer-1" data-name="P">
<path transform="matrix(1,0,0,-1,-139,374)" stroke-width=".75" stroke-linecap="butt" stroke-linejoin="round" fill="none" stroke="#ffffff" d="M 137.64 201.6 L 247.32 201.6 L 247.32 223.32 L 137.64 223.32 Z "/>
</g>
<g id="Layer-1" data-name="Span">
<clipPath id="cp1">
<path transform="matrix(1,0,0,-1,-139,374)" d="M .000014305 0 L 960 0 L 960 540 L .000014305 540 Z " fill-rule="evenodd"/>
</clipPath>
<g clip-path="url(#cp1)">
<text xml:space="preserve" transform="matrix(1 0 -0 1 -139 374)" font-size="12" font-family="Cambria"><tspan y="-208.06" x="146.35 152.83 158.686 165.418 168.754 172.006 175.258">Vanilla</tspan></text>
</g>
</g>
<g id="Layer-1" data-name="Span">
<clipPath id="cp2">
<path transform="matrix(1,0,0,-1,-139,374)" d="M .000014305 0 L 960 0 L 960 540 L .000014305 540 Z " fill-rule="evenodd"/>
</clipPath>
<g clip-path="url(#cp2)">
<text xml:space="preserve" transform="matrix(1 0 -0 1 -139 374)" font-size="12" font-family="Cambria"><tspan y="-208.06" x="183.91 190.27 196.15 203.26599 213.04599 215.68599 223.01799 228.898 232.858">LSTM Gate</tspan></text>
</g>
</g>
<g id="Layer-1" data-name="P">
<clipPath id="cp3">
<path transform="matrix(1,0,0,-1,-139,374)" d="M -.000015259 540 L 960 540 L 960 .000061035 L -.000045776 0 " fill-rule="evenodd"/>
</clipPath>
<g clip-path="url(#cp3)">
<path transform="matrix(1,0,0,-1,-139,374)" d="M 156.2 259.21 L 174.04 290.11 L 173.17 290.61 L 155.33 259.71 Z M 173.61 290.36 L 175.2 287.13 L 175.61 293.83 L 170.01 290.13 Z "/>
</g>
</g>
<g id="Layer-1" data-name="P">
<clipPath id="cp4">
<path transform="matrix(1,0,0,-1,-139,374)" d="M -.000030518 540 L 960 540 L 960 -.000061035 L -.000015259 -.000061035 " fill-rule="evenodd"/>
</clipPath>
<g clip-path="url(#cp4)">
<path transform="matrix(1,0,0,-1,-139,374)" d="M 222.67 259.71 L 204.82 290.61 L 203.96 290.11 L 221.8 259.21 Z M 204.39 290.36 L 207.99 290.13 L 202.39 293.83 L 202.79 287.13 Z "/>
</g>
</g>
<g id="Layer-1" data-name="P">
<path transform="matrix(1,0,0,-1,-139,374)" d="M 189.5 338.5 L 189.5 368 L 188.5 368 L 188.5 338.5 Z M 189 368 L 192 366 L 189 372 L 186 366 Z "/>
</g>
<g id="Layer-1" data-name="P">
<path transform="matrix(1,0,0,-1,-139,374)" stroke-width="1" stroke-linecap="butt" stroke-miterlimit="8" stroke-linejoin="miter" fill="none" stroke="#000000" d="M 164.88 314.4 C 164.88 327.72 175.68 338.52 189 338.52 C 202.32 338.52 213.12 327.72 213.12 314.4 C 213.12 301.08 202.32 290.28 189 290.28 C 175.68 290.28 164.88 301.08 164.88 314.4 Z "/>
</g>
<g id="Layer-1" data-name="P">
<clipPath id="cp5">
<path transform="matrix(1,0,0,-1,-139,374)" d="M 180.6 306.48 L 198.36 306.48 L 198.36 320.64 L 180.6 320.64 Z " fill-rule="evenodd"/>
</clipPath>
<g clip-path="url(#cp5)">
<clipPath id="cp6">
<path transform="matrix(13.263939,.000020272044,0,-13.065181,41.600008,67.51999)" d="M 0 0 L 1.339 0 L 1.339 1.0838 L 0 1.0838 Z " fill-rule="evenodd"/>
</clipPath>
<g clip-path="url(#cp6)">
<clipPath id="cp7">
<path transform="matrix(13.263939,.000020272044,0,-13.065181,41.600008,67.51999)" d="M .085046 .038772 L 1.2850461 .038772 L 1.2850461 .99877199 L .085046 .99877199 Z " fill-rule="evenodd"/>
</clipPath>
<g clip-path="url(#cp7)">
<path transform="matrix(13.263939,.000020272044,0,-13.065181,41.600008,67.51999)" d="M .47174 .054323 C .37646 .054323 .29941 .085847 .24056 .14889 C .18172 .21194 .1516 .2911 .15019 .38637 C .15019 .52648 .20133 .65678 .30361 .77727 C .40589 .89776 .52497 .96571 .66088 .98112 C .66228 .98252 .76035 .98322 .9551 .98322 L 1.2451 .98322 C 1.2465 .98182 1.2486 .98042 1.2514 .97902 C 1.2542 .97762 1.257 .97622 1.2598 .97481 C 1.2626 .97341 1.2647 .97201 1.2661 .97061 C 1.2675 .96921 1.2696 .96711 1.2724 .96431 C 1.2752 .9615 1.2766 .9601 1.2766 .9601 C 1.2766 .9601 1.278 .9573 1.2808 .9517 C 1.2836 .94609 1.2843 .94329 1.2829 .94329 C 1.2815 .94329 1.2822 .93979 1.285 .93278 C 1.2878 .92578 1.2885 .92157 1.2871 .92017 C 1.2871 .85853 1.2416 .8277 1.1505 .8277 C 1.1407 .8277 1.1288 .8277 1.1148 .8277 C 1.1008 .8277 1.091 .8284 1.0854 .82981 L .9593 .82981 L .96981 .80879 C .99503 .75555 1.0076 .696 1.0076 .63016 C 1.0076 .47604 .95159 .34154 .83951 .22665 C .72743 .11177 .60483 .054323 .47174 .054323 Z M .84371 .66168 C .84371 .77376 .78417 .82981 .66508 .82981 C .49135 .82981 .37857 .70791 .32673 .46413 C .32533 .45853 .32463 .45432 .32463 .45152 C .31342 .39968 .30781 .35695 .30781 .32333 C .30781 .25327 .32533 .20424 .36035 .17621 C .39538 .14819 .43531 .13348 .48014 .13208 C .5558 .13208 .62515 .16501 .6882 .23086 C .72883 .27289 .76175 .32893 .78697 .39898 C .81219 .46903 .8276 .52508 .83321 .56711 C .83881 .60914 .84231 .64066 .84371 .66168 Z "/>
</g>
</g>
</g>
</g>
<g id="Layer-1" data-name="P">
<clipPath id="cp8">
<path transform="matrix(1,0,0,-1,-139,374)" d="M 209.16 240.24 L 245.52 240.24 L 245.52 258.36003 L 209.16 258.36003 Z " fill-rule="evenodd"/>
</clipPath>
<g clip-path="url(#cp8)">
<clipPath id="cp9">
<path transform="matrix(9.146055,.000006827847,-.0000066106438,-8.849472,70.16,133.76)" d="M 0 0 L 3.9754 0 L 3.9754 2.0476 L 0 2.0476 Z " fill-rule="evenodd"/>
</clipPath>
<g clip-path="url(#cp9)">
<clipPath id="cp10">
<path transform="matrix(9.146055,.000006827847,-.0000066106438,-8.849472,70.16,133.76)" d="M .085046 .042585 L 3.925046 .042585 L 3.925046 1.962585 L .085046 1.962585 Z " fill-rule="evenodd"/>
</clipPath>
<g clip-path="url(#cp10)">
<path transform="matrix(9.146055,.000006827847,-.0000066106438,-8.849472,70.16,133.76)" d="M .39699 1.9392 C .39841 1.9392 .4495 1.9427 .55025 1.9498 C .65101 1.9569 .7028 1.9612 .70564 1.9626 C .72267 1.9626 .73118 1.9562 .73118 1.9434 C .73118 1.9278 .70564 1.8207 .65455 1.622 C .60063 1.412 .57367 1.3048 .57367 1.3006 C .57367 1.2978 .57863 1.3013 .58857 1.3112 C .67513 1.3879 .76737 1.4262 .86529 1.4262 C .94191 1.4262 1.0036 1.407 1.0505 1.3687 C 1.0973 1.3304 1.1214 1.2743 1.1228 1.2005 C 1.1228 1.1282 1.0959 1.0161 1.042 .86423 C .98804 .71239 .96107 .62157 .96107 .59177 C .96249 .5719 .96604 .55842 .97172 .55132 C .97739 .54423 .98804 .54068 1.0036 .54068 C 1.0434 .54068 1.0803 .56196 1.1143 .60454 C 1.1484 .64711 1.1761 .70529 1.1973 .77908 C 1.2016 .79469 1.2059 .80392 1.2101 .80675 C 1.2144 .80959 1.2257 .81101 1.2442 .81101 C 1.2726 .81101 1.2867 .80533 1.2867 .79398 C 1.2867 .79256 1.2839 .78192 1.2782 .76205 C 1.2555 .67833 1.2193 .6095 1.1697 .55558 C 1.1214 .49456 1.064 .46405 .99726 .46405 L .98662 .46405 C .91992 .46405 .87167 .48321 .84187 .52152 C .81207 .55984 .79717 .60028 .79717 .64285 C .79717 .66556 .82271 .74928 .8738 .89403 C .92489 1.0388 .95114 1.1473 .95256 1.2197 C .95256 1.3034 .92134 1.3453 .8589 1.3453 L .84826 1.3453 C .73047 1.3453 .6283 1.2758 .54174 1.1367 L .52684 1.109 L .45446 .82165 C .40906 .63718 .3828 .53642 .37571 .51939 C .35726 .48108 .32604 .46192 .28205 .46192 C .26218 .46192 .24515 .46831 .23096 .48108 C .21677 .49385 .20897 .50662 .20755 .51939 C .20755 .53926 .25934 .75496 .36293 1.1665 L .52045 1.7966 C .52045 1.815 .51549 1.8264 .50555 1.8306 C .49562 1.8349 .46795 1.8384 .42254 1.8413 L .37784 1.8413 C .36932 1.8498 .36506 1.8554 .36506 1.8583 C .36506 1.8611 .36648 1.8746 .36932 1.8987 C .37642 1.9257 .38564 1.9392 .39699 1.9392 Z "/>
</g>
<path transform="matrix(9.146055,.000006827847,-.0000066106438,-8.849472,70.16,133.76)" d="M 1.3706 .74544 C 1.3636 .75246 1.36 .75748 1.36 .76049 C 1.36 .7645 1.3615 .77253 1.3646 .78457 C 1.3676 .79661 1.3701 .80363 1.3721 .80564 C 1.3741 .81065 1.3786 .81316 1.3856 .81316 C 1.3926 .81316 1.4182 .81366 1.4624 .81467 L 1.5421 .81467 L 1.5707 .93506 C 1.5737 .9461 1.5773 .96064 1.5813 .9787 C 1.5853 .99676 1.5888 1.0098 1.5918 1.0178 C 1.5948 1.0259 1.5978 1.0359 1.6008 1.0479 C 1.6038 1.06 1.6079 1.0685 1.6129 1.0735 C 1.6179 1.0785 1.6229 1.0845 1.6279 1.0916 C 1.6329 1.0986 1.64 1.1031 1.649 1.1051 C 1.658 1.1071 1.667 1.1081 1.6761 1.1081 C 1.6941 1.1071 1.7067 1.1016 1.7137 1.0916 C 1.7207 1.0815 1.7242 1.072 1.7242 1.063 C 1.7242 1.056 1.7197 1.0324 1.7107 .99225 C 1.7017 .95212 1.6916 .91249 1.6806 .87336 L 1.6655 .81768 C 1.6655 .81567 1.6906 .81467 1.7408 .81467 L 1.8175 .81467 C 1.8246 .80764 1.8281 .80213 1.8281 .79811 C 1.8281 .77604 1.8216 .75848 1.8085 .74544 L 1.6475 .74544 L 1.5933 .52723 C 1.5542 .3667 1.5346 .28042 1.5346 .26838 C 1.5346 .22624 1.5482 .20517 1.5752 .20517 C 1.6104 .20517 1.6445 .22223 1.6776 .25634 C 1.7107 .29045 1.7373 .33259 1.7573 .38275 C 1.7593 .38877 1.7619 .39228 1.7649 .39329 C 1.7679 .39429 1.7754 .39529 1.7874 .3963 L 1.7935 .3963 C 1.8085 .3963 1.816 .39228 1.816 .38426 C 1.816 .38125 1.8145 .37523 1.8115 .3662 C 1.8065 .35015 1.7975 .33109 1.7844 .30901 C 1.7714 .28694 1.7543 .26336 1.7333 .23828 C 1.7122 .2132 1.6866 .19213 1.6565 .17507 C 1.6264 .15802 1.5958 .14949 1.5647 .14949 C 1.5346 .14949 1.506 .15702 1.4789 .17206 C 1.4518 .18711 1.4323 .2132 1.4202 .25032 C 1.4182 .25835 1.4172 .27189 1.4172 .29095 L 1.4172 .31804 L 1.4699 .52873 C 1.505 .67019 1.5231 .74143 1.5241 .74243 C 1.5241 .74444 1.4985 .74544 1.4473 .74544 L 1.3706 .74544 Z "/>
<path transform="matrix(9.146055,.000006827847,-.0000066106438,-8.849472,70.16,133.76)" d="M 2.0011 .52271 C 2.0011 .52271 2.0011 .52923 2.0011 .54228 C 2.0011 .55532 2.0082 .56535 2.0222 .57237 L 2.8966 .57237 C 2.9116 .56435 2.9191 .55431 2.9191 .54228 C 2.9191 .53024 2.9116 .5202 2.8966 .51218 L 2.0222 .51218 C 2.0082 .5192 2.0011 .52923 2.0011 .54228 Z "/>
<path transform="matrix(9.146055,.000006827847,-.0000066106438,-8.849472,70.16,133.76)" d="M 3.3661 1.0359 L 3.3465 1.0284 C 3.3325 1.0233 3.3124 1.0183 3.2863 1.0133 C 3.2603 1.0083 3.2312 1.0048 3.1991 1.0028 L 3.1705 1.0028 L 3.1705 1.072 L 3.1991 1.072 C 3.2462 1.074 3.2899 1.0815 3.33 1.0946 C 3.3701 1.1076 3.3982 1.1197 3.4143 1.1307 C 3.4303 1.1417 3.4444 1.1528 3.4564 1.1638 C 3.4584 1.1668 3.4644 1.1683 3.4745 1.1683 C 3.4835 1.1683 3.492 1.1653 3.5 1.1593 L 3.5 .70932 L 3.5015 .25784 C 3.5086 .25082 3.5146 .24631 3.5196 .2443 C 3.5246 .24229 3.5367 .24029 3.5557 .23828 C 3.5748 .23627 3.6059 .23527 3.649 .23527 L 3.6882 .23527 L 3.6882 .16604 L 3.6716 .16604 C 3.6505 .16905 3.5708 .17056 3.4323 .17056 C 3.2959 .17056 3.2171 .16905 3.196 .16604 L 3.178 .16604 L 3.178 .23527 L 3.2171 .23527 C 3.2392 .23527 3.2583 .23527 3.2743 .23527 C 3.2904 .23527 3.3029 .23577 3.3119 .23678 C 3.321 .23778 3.329 .23928 3.336 .24129 C 3.343 .2433 3.347 .2443 3.348 .2443 C 3.349 .2443 3.3521 .24681 3.3571 .25183 C 3.3621 .25684 3.3651 .25885 3.3661 .25784 L 3.3661 1.0359 Z "/>
</g>
</g>
</g>
<g id="Layer-1" data-name="P">
<clipPath id="cp11">
<path transform="matrix(1,0,0,-1,-139,374)" d="M 140.64 240 L 161.28 240 L 161.28 254.16 L 140.64 254.16 Z " fill-rule="evenodd"/>
</clipPath>
<g clip-path="url(#cp11)">
<clipPath id="cp12">
<path transform="matrix(10.079603,.000013255696,-.000009320101,-9.749915,1.6399994,134)" d="M 0 0 L 2.0477 0 L 2.0477 1.4523 L 0 1.4523 Z " fill-rule="evenodd"/>
</clipPath>
<g clip-path="url(#cp12)">
<path transform="matrix(10.079603,.000013255696,-.000009320101,-9.749915,1.6399994,134)" d="M .19885 1.0288 C .20906 1.0901 .24846 1.1608 .31703 1.2411 C .3856 1.3213 .47023 1.3622 .5709 1.3636 C .62196 1.3636 .66866 1.3505 .71097 1.3242 C .75328 1.298 .78465 1.2651 .80507 1.2258 C .86635 1.3177 .94003 1.3636 1.0261 1.3636 C 1.0801 1.3636 1.1268 1.3476 1.1662 1.3155 C 1.2056 1.2834 1.226 1.2403 1.2275 1.1864 C 1.2275 1.144 1.2172 1.1098 1.1968 1.0835 C 1.1764 1.0572 1.1567 1.0412 1.1377 1.0354 C 1.1188 1.0295 1.102 1.0266 1.0874 1.0266 C 1.0597 1.0266 1.0371 1.0346 1.0195 1.0507 C 1.002 1.0667 .99329 1.0879 .99329 1.1141 C .99329 1.1813 1.0298 1.2272 1.1027 1.252 C 1.0867 1.271 1.0575 1.2805 1.0152 1.2805 C .9962 1.2805 .98234 1.279 .97359 1.2761 C .91815 1.2527 .87729 1.2046 .85103 1.1316 C .76349 .8092 .71972 .62099 .71972 .567 C .71972 .52615 .73139 .49697 .75474 .47946 C .77808 .46195 .80361 .4532 .83134 .4532 C .88532 .4532 .93857 .47727 .9911 .52542 C 1.0436 .57357 1.0794 .63266 1.0983 .70269 C 1.1027 .71728 1.1071 .72531 1.1115 .72677 C 1.1158 .72823 1.1275 .72968 1.1465 .73114 L 1.1552 .73114 C 1.1771 .73114 1.1881 .72531 1.1881 .71364 C 1.1881 .71218 1.1866 .70415 1.1837 .68956 C 1.1603 .6064 1.1151 .53272 1.048 .46852 C .98088 .40432 .90283 .37222 .81383 .37222 C .71169 .37222 .63437 .41818 .58184 .5101 C .52202 .41964 .45345 .37441 .37612 .37441 L .36299 .37441 C .2915 .37441 .24043 .39338 .20979 .43131 C .17915 .46925 .1631 .50937 .16164 .55168 C .16164 .59837 .1755 .63631 .20323 .66549 C .23095 .69467 .26378 .70926 .30171 .70926 C .36445 .70926 .39582 .67862 .39582 .61734 C .39582 .58816 .38706 .56263 .36955 .54074 C .35205 .51886 .33527 .50427 .31922 .49697 C .30317 .48968 .29369 .48603 .29077 .48603 L .2842 .48384 C .2842 .48238 .28858 .47946 .29733 .47509 C .30609 .47071 .31776 .4656 .33235 .45977 C .34694 .45393 .3608 .45174 .37393 .4532 C .42646 .4532 .47169 .48603 .50962 .55168 C .52275 .57503 .53953 .62463 .55996 .7005 C .58038 .77637 .60081 .85516 .62124 .93687 C .64166 1.0186 .65334 1.0667 .65625 1.0813 C .66355 1.1207 .6672 1.1492 .6672 1.1667 C .6672 1.2075 .65625 1.2367 .63437 1.2542 C .61248 1.2717 .58768 1.2805 .55996 1.2805 C .5016 1.2805 .44688 1.2571 .39582 1.2104 C .34475 1.1637 .309 1.1039 .28858 1.031 C .28566 1.0178 .28201 1.0105 .27764 1.0091 C .27326 1.0076 .26159 1.0062 .24262 1.0047 L .21198 1.0047 C .20323 1.0135 .19885 1.0215 .19885 1.0288 Z "/>
<path transform="matrix(10.079603,.000013255696,-.000009320101,-9.749915,1.6399994,134)" d="M 1.3771 .66373 C 1.3699 .67095 1.3663 .6761 1.3663 .6792 C 1.3663 .68333 1.3678 .69158 1.3709 .70396 C 1.374 .71633 1.3766 .72356 1.3787 .72562 C 1.3807 .73078 1.3854 .73335 1.3926 .73335 C 1.3998 .73335 1.4261 .73387 1.4715 .7349 L 1.5535 .7349 L 1.5829 .85869 C 1.586 .87003 1.5896 .88499 1.5937 .90356 C 1.5979 .92212 1.6015 .93553 1.6046 .94379 C 1.6077 .95204 1.6108 .96235 1.6139 .97473 C 1.6169 .98711 1.6211 .99588 1.6262 1.001 C 1.6314 1.0062 1.6365 1.0124 1.6417 1.0196 C 1.6469 1.0268 1.6541 1.0315 1.6634 1.0335 C 1.6726 1.0356 1.6819 1.0366 1.6912 1.0366 C 1.7098 1.0356 1.7227 1.0299 1.7299 1.0196 C 1.7371 1.0093 1.7407 .99949 1.7407 .99021 C 1.7407 .98298 1.7361 .95874 1.7268 .91748 C 1.7175 .87622 1.7072 .83548 1.6959 .79525 L 1.6804 .738 C 1.6804 .73593 1.7062 .7349 1.7578 .7349 L 1.8367 .7349 C 1.8439 .72768 1.8475 .72201 1.8475 .71788 C 1.8475 .69519 1.8408 .67714 1.8274 .66373 L 1.6618 .66373 L 1.6061 .43937 C 1.5659 .27432 1.5458 .18561 1.5458 .17323 C 1.5458 .12991 1.5597 .10825 1.5875 .10825 C 1.6237 .10825 1.6587 .12578 1.6928 .16086 C 1.7268 .19593 1.7541 .23925 1.7748 .29083 C 1.7768 .29702 1.7794 .30063 1.7825 .30166 C 1.7856 .30269 1.7933 .30372 1.8057 .30475 L 1.8119 .30475 C 1.8274 .30475 1.8351 .30063 1.8351 .29238 C 1.8351 .28928 1.8336 .28309 1.8305 .27381 C 1.8253 .2573 1.816 .23771 1.8026 .21501 C 1.7892 .19232 1.7717 .16808 1.75 .14229 C 1.7284 .1165 1.702 .094838 1.6711 .077302 C 1.6402 .059766 1.6087 .050998 1.5767 .050998 C 1.5458 .050998 1.5164 .058735 1.4885 .074208 C 1.4607 .089681 1.4406 .1165 1.4282 .15467 C 1.4261 .16292 1.4251 .17684 1.4251 .19644 L 1.4251 .2243 L 1.4792 .44092 C 1.5153 .58636 1.5339 .6596 1.5349 .66063 C 1.5349 .66269 1.5086 .66373 1.456 .66373 L 1.3771 .66373 Z "/>
</g>
</g>
</g>
<g id="Layer-1" data-name="P">
<path transform="matrix(1,0,0,-1,-139,374)" stroke-width=".75" stroke-linecap="butt" stroke-linejoin="round" fill="none" stroke="#ffffff" d="M 296.28 186.96 L 424.8 186.96 L 424.8 223.32 L 296.28 223.32 Z "/>
</g>
<g id="Layer-1" data-name="Span">
<clipPath id="cp13">
<path transform="matrix(1,0,0,-1,-139,374)" d="M .000014305 0 L 960 0 L 960 540 L .000014305 540 Z " fill-rule="evenodd"/>
</clipPath>
<g clip-path="url(#cp13)">
<text xml:space="preserve" transform="matrix(1 0 -0 1 -139 374)" font-size="12" font-family="Cambria"><tspan y="-208.06" x="303.5 309.86 315.74 322.856 332.636 335.276 342.608 348.48799 352.44798 358.30397 360.84797 370.08796 373.42396 377.51597">LSTM Gate with</tspan></text>
</g>
</g>
<g id="Layer-1" data-name="Span">
<clipPath id="cp14">
<path transform="matrix(1,0,0,-1,-139,374)" d="M .000014305 0 L 960 0 L 960 540 L .000014305 540 Z " fill-rule="evenodd"/>
</clipPath>
<g clip-path="url(#cp14)">
<text xml:space="preserve" transform="matrix(1 0 -0 1 -139 374)" font-size="12" font-family="Cambria"><tspan y="-193.66" x="303.5 310.1 315.956 321.848 328.556 335.18 341.516 344.768">Peephole</tspan></text>
</g>
</g>
<g id="Layer-1" data-name="Span">
<clipPath id="cp15">
<path transform="matrix(1,0,0,-1,-139,374)" d="M .000014305 0 L 960 0 L 960 540 L .000014305 540 Z " fill-rule="evenodd"/>
</clipPath>
<g clip-path="url(#cp15)">
<text xml:space="preserve" transform="matrix(1 0 -0 1 -139 374)" font-size="12" font-family="Cambria"><tspan y="-193.66" x="353.3 360.02 366.392 373.088 379.78404 385.68803 390.98 395.036 398.372 404.74403">Connection</tspan></text>
</g>
</g>
<g id="Layer-1" data-name="P">
<path transform="matrix(1,0,0,-1,-139,374)" d="M 320.42 259.18 L 347.62 290.53 L 346.86 291.19 L 319.66 259.84 Z M 347.24 290.86 L 348.19 287.38 L 349.86 293.88 L 343.66 291.31 Z "/>
</g>
<g id="Layer-1" data-name="P">
<path transform="matrix(1,0,0,-1,-139,374)" d="M 405.07 259.19 L 378.75 290.5 L 379.52 291.14 L 405.84 259.83 Z M 379.13 290.82 L 378.12 287.36 L 376.56 293.88 L 382.72 291.22 Z "/>
</g>
<g id="Layer-1" data-name="P">
<path transform="matrix(1,0,0,-1,-139,374)" d="M 363.74 338.5 L 363.74 368 L 362.74 368 L 362.74 338.5 Z M 363.24 368 L 366.24 366 L 363.24 372 L 360.24 366 Z "/>
</g>
<g id="Layer-1" data-name="P">
<path transform="matrix(1,0,0,-1,-139,374)" stroke-width="1" stroke-linecap="butt" stroke-miterlimit="8" stroke-linejoin="miter" fill="none" stroke="#000000" d="M 339.12 314.4 C 339.12 327.72 349.92 338.52 363.24 338.52 C 376.56 338.52 387.36 327.72 387.36 314.4 C 387.36 301.08 376.56 290.28 363.24 290.28 C 349.92 290.28 339.12 301.08 339.12 314.4 Z "/>
</g>
<g id="Layer-1" data-name="P">
<clipPath id="cp16">
<path transform="matrix(1,0,0,-1,-139,374)" d="M 354.84 306.48 L 372.47999 306.48 L 372.47999 320.64 L 354.84 320.64 Z " fill-rule="evenodd"/>
</clipPath>
<g clip-path="url(#cp16)">
<clipPath id="cp17">
<path transform="matrix(13.17414,.000020272044,-.000025044863,-13.065181,215.84,67.51999)" d="M 0 0 L 1.339 0 L 1.339 1.0838 L 0 1.0838 Z " fill-rule="evenodd"/>
</clipPath>
<g clip-path="url(#cp17)">
<clipPath id="cp18">
<path transform="matrix(13.17414,.000020272044,-.000025044863,-13.065181,215.84,67.51999)" d="M .085046 .038772 L 1.2850461 .038772 L 1.2850461 .99877199 L .085046 .99877199 Z " fill-rule="evenodd"/>
</clipPath>
<g clip-path="url(#cp18)">
<path transform="matrix(13.17414,.000020272044,-.000025044863,-13.065181,215.84,67.51999)" d="M .47174 .054323 C .37646 .054323 .29941 .085847 .24056 .14889 C .18172 .21194 .1516 .2911 .15019 .38637 C .15019 .52648 .20133 .65678 .30361 .77727 C .40589 .89776 .52497 .96571 .66088 .98112 C .66228 .98252 .76035 .98322 .9551 .98322 L 1.2451 .98322 C 1.2465 .98182 1.2486 .98042 1.2514 .97902 C 1.2542 .97762 1.257 .97622 1.2598 .97481 C 1.2626 .97341 1.2647 .97201 1.2661 .97061 C 1.2675 .96921 1.2696 .96711 1.2724 .96431 C 1.2752 .9615 1.2766 .9601 1.2766 .9601 C 1.2766 .9601 1.278 .9573 1.2808 .9517 C 1.2836 .94609 1.2843 .94329 1.2829 .94329 C 1.2815 .94329 1.2822 .93979 1.285 .93278 C 1.2878 .92578 1.2885 .92157 1.2871 .92017 C 1.2871 .85853 1.2416 .8277 1.1505 .8277 C 1.1407 .8277 1.1288 .8277 1.1148 .8277 C 1.1008 .8277 1.091 .8284 1.0854 .82981 L .9593 .82981 L .96981 .80879 C .99503 .75555 1.0076 .696 1.0076 .63016 C 1.0076 .47604 .95159 .34154 .83951 .22665 C .72743 .11177 .60483 .054323 .47174 .054323 Z M .84371 .66168 C .84371 .77376 .78417 .82981 .66508 .82981 C .49135 .82981 .37857 .70791 .32673 .46413 C .32533 .45853 .32463 .45432 .32463 .45152 C .31342 .39968 .30781 .35695 .30781 .32333 C .30781 .25327 .32533 .20424 .36035 .17621 C .39538 .14819 .43531 .13348 .48014 .13208 C .5558 .13208 .62515 .16501 .6882 .23086 C .72883 .27289 .76175 .32893 .78697 .39898 C .81219 .46903 .8276 .52508 .83321 .56711 C .83881 .60914 .84231 .64066 .84371 .66168 Z "/>
</g>
</g>
</g>
</g>
<g id="Layer-1" data-name="P">
<clipPath id="cp19">
<path transform="matrix(1,0,0,-1,-139,374)" d="M 345.6 231.48 L 381.96003 231.48 L 381.96003 249.59999 L 345.6 249.59999 Z " fill-rule="evenodd"/>
</clipPath>
<g clip-path="url(#cp19)">
<clipPath id="cp20">
<path transform="matrix(9.146055,.000006827847,-.00001325645,-8.849472,206.6,142.52)" d="M 0 0 L 3.9754 0 L 3.9754 2.0476 L 0 2.0476 Z " fill-rule="evenodd"/>
</clipPath>
<g clip-path="url(#cp20)">
<clipPath id="cp21">
<path transform="matrix(9.146055,.000006827847,-.00001325645,-8.849472,206.6,142.52)" d="M .085046 .042585 L 3.925046 .042585 L 3.925046 1.962585 L .085046 1.962585 Z " fill-rule="evenodd"/>
</clipPath>
<g clip-path="url(#cp21)">
<path transform="matrix(9.146055,.000006827847,-.00001325645,-8.849472,206.6,142.52)" d="M .39699 1.9392 C .39841 1.9392 .4495 1.9427 .55025 1.9498 C .65101 1.9569 .7028 1.9612 .70564 1.9626 C .72267 1.9626 .73118 1.9562 .73118 1.9434 C .73118 1.9278 .70564 1.8207 .65455 1.622 C .60063 1.412 .57367 1.3048 .57367 1.3006 C .57367 1.2978 .57863 1.3013 .58857 1.3112 C .67513 1.3879 .76737 1.4262 .86529 1.4262 C .94191 1.4262 1.0036 1.407 1.0505 1.3687 C 1.0973 1.3304 1.1214 1.2743 1.1228 1.2005 C 1.1228 1.1282 1.0959 1.0161 1.042 .86423 C .98804 .71239 .96107 .62157 .96107 .59177 C .96249 .5719 .96604 .55842 .97172 .55132 C .97739 .54423 .98804 .54068 1.0036 .54068 C 1.0434 .54068 1.0803 .56196 1.1143 .60454 C 1.1484 .64711 1.1761 .70529 1.1973 .77908 C 1.2016 .79469 1.2059 .80392 1.2101 .80675 C 1.2144 .80959 1.2257 .81101 1.2442 .81101 C 1.2726 .81101 1.2867 .80533 1.2867 .79398 C 1.2867 .79256 1.2839 .78192 1.2782 .76205 C 1.2555 .67833 1.2193 .6095 1.1697 .55558 C 1.1214 .49456 1.064 .46405 .99726 .46405 L .98662 .46405 C .91992 .46405 .87167 .48321 .84187 .52152 C .81207 .55984 .79717 .60028 .79717 .64285 C .79717 .66556 .82271 .74928 .8738 .89403 C .92489 1.0388 .95114 1.1473 .95256 1.2197 C .95256 1.3034 .92134 1.3453 .8589 1.3453 L .84826 1.3453 C .73047 1.3453 .6283 1.2758 .54174 1.1367 L .52684 1.109 L .45446 .82165 C .40906 .63718 .3828 .53642 .37571 .51939 C .35726 .48108 .32604 .46192 .28205 .46192 C .26218 .46192 .24515 .46831 .23096 .48108 C .21677 .49385 .20897 .50662 .20755 .51939 C .20755 .53926 .25934 .75496 .36293 1.1665 L .52045 1.7966 C .52045 1.815 .51549 1.8264 .50555 1.8306 C .49562 1.8349 .46795 1.8384 .42254 1.8413 L .37784 1.8413 C .36932 1.8498 .36506 1.8554 .36506 1.8583 C .36506 1.8611 .36648 1.8746 .36932 1.8987 C .37642 1.9257 .38564 1.9392 .39699 1.9392 Z "/>
</g>
<path transform="matrix(9.146055,.000006827847,-.00001325645,-8.849472,206.6,142.52)" d="M 1.3706 .74544 C 1.3636 .75246 1.36 .75748 1.36 .76049 C 1.36 .7645 1.3615 .77253 1.3646 .78457 C 1.3676 .79661 1.3701 .80363 1.3721 .80564 C 1.3741 .81065 1.3786 .81316 1.3856 .81316 C 1.3926 .81316 1.4182 .81366 1.4624 .81467 L 1.5421 .81467 L 1.5707 .93506 C 1.5737 .9461 1.5773 .96064 1.5813 .9787 C 1.5853 .99676 1.5888 1.0098 1.5918 1.0178 C 1.5948 1.0259 1.5978 1.0359 1.6008 1.0479 C 1.6038 1.06 1.6079 1.0685 1.6129 1.0735 C 1.6179 1.0785 1.6229 1.0845 1.6279 1.0916 C 1.6329 1.0986 1.64 1.1031 1.649 1.1051 C 1.658 1.1071 1.667 1.1081 1.6761 1.1081 C 1.6941 1.1071 1.7067 1.1016 1.7137 1.0916 C 1.7207 1.0815 1.7242 1.072 1.7242 1.063 C 1.7242 1.056 1.7197 1.0324 1.7107 .99225 C 1.7017 .95212 1.6916 .91249 1.6806 .87336 L 1.6655 .81768 C 1.6655 .81567 1.6906 .81467 1.7408 .81467 L 1.8175 .81467 C 1.8246 .80764 1.8281 .80213 1.8281 .79811 C 1.8281 .77604 1.8216 .75848 1.8085 .74544 L 1.6475 .74544 L 1.5933 .52723 C 1.5542 .3667 1.5346 .28042 1.5346 .26838 C 1.5346 .22624 1.5482 .20517 1.5752 .20517 C 1.6104 .20517 1.6445 .22223 1.6776 .25634 C 1.7107 .29045 1.7373 .33259 1.7573 .38275 C 1.7593 .38877 1.7619 .39228 1.7649 .39329 C 1.7679 .39429 1.7754 .39529 1.7874 .3963 L 1.7935 .3963 C 1.8085 .3963 1.816 .39228 1.816 .38426 C 1.816 .38125 1.8145 .37523 1.8115 .3662 C 1.8065 .35015 1.7975 .33109 1.7844 .30901 C 1.7714 .28694 1.7543 .26336 1.7333 .23828 C 1.7122 .2132 1.6866 .19213 1.6565 .17507 C 1.6264 .15802 1.5958 .14949 1.5647 .14949 C 1.5346 .14949 1.506 .15702 1.4789 .17206 C 1.4518 .18711 1.4323 .2132 1.4202 .25032 C 1.4182 .25835 1.4172 .27189 1.4172 .29095 L 1.4172 .31804 L 1.4699 .52873 C 1.505 .67019 1.5231 .74143 1.5241 .74243 C 1.5241 .74444 1.4985 .74544 1.4473 .74544 L 1.3706 .74544 Z "/>
<path transform="matrix(9.146055,.000006827847,-.00001325645,-8.849472,206.6,142.52)" d="M 2.0011 .52271 C 2.0011 .52271 2.0011 .52923 2.0011 .54228 C 2.0011 .55532 2.0082 .56535 2.0222 .57237 L 2.8966 .57237 C 2.9116 .56435 2.9191 .55431 2.9191 .54228 C 2.9191 .53024 2.9116 .5202 2.8966 .51218 L 2.0222 .51218 C 2.0082 .5192 2.0011 .52923 2.0011 .54228 Z "/>
<path transform="matrix(9.146055,.000006827847,-.00001325645,-8.849472,206.6,142.52)" d="M 3.3661 1.0359 L 3.3465 1.0284 C 3.3325 1.0233 3.3124 1.0183 3.2863 1.0133 C 3.2603 1.0083 3.2312 1.0048 3.1991 1.0028 L 3.1705 1.0028 L 3.1705 1.072 L 3.1991 1.072 C 3.2462 1.074 3.2899 1.0815 3.33 1.0946 C 3.3701 1.1076 3.3982 1.1197 3.4143 1.1307 C 3.4303 1.1417 3.4444 1.1528 3.4564 1.1638 C 3.4584 1.1668 3.4644 1.1683 3.4745 1.1683 C 3.4835 1.1683 3.492 1.1653 3.5 1.1593 L 3.5 .70932 L 3.5015 .25784 C 3.5086 .25082 3.5146 .24631 3.5196 .2443 C 3.5246 .24229 3.5367 .24029 3.5557 .23828 C 3.5748 .23627 3.6059 .23527 3.649 .23527 L 3.6882 .23527 L 3.6882 .16604 L 3.6716 .16604 C 3.6505 .16905 3.5708 .17056 3.4323 .17056 C 3.2959 .17056 3.2171 .16905 3.196 .16604 L 3.178 .16604 L 3.178 .23527 L 3.2171 .23527 C 3.2392 .23527 3.2583 .23527 3.2743 .23527 C 3.2904 .23527 3.3029 .23577 3.3119 .23678 C 3.321 .23778 3.329 .23928 3.336 .24129 C 3.343 .2433 3.347 .2443 3.348 .2443 C 3.349 .2443 3.3521 .24681 3.3571 .25183 C 3.3621 .25684 3.3651 .25885 3.3661 .25784 L 3.3661 1.0359 Z "/>
</g>
</g>
</g>
<clipPath id="cp22">
<path transform="matrix(1,0,0,-1,-139,374)" d="M 305.88 240 L 326.52003 240 L 326.52003 254.16 L 305.88 254.16 Z " fill-rule="evenodd"/>
</clipPath>
<g clip-path="url(#cp22)">
<clipPath id="cp23">
<path transform="matrix(10.079603,.000013255696,-.000018689775,-9.749915,166.88,134)" d="M 0 0 L 2.0477 0 L 2.0477 1.4523 L 0 1.4523 Z " fill-rule="evenodd"/>
</clipPath>
<g clip-path="url(#cp23)">
<path transform="matrix(10.079603,.000013255696,-.000018689775,-9.749915,166.88,134)" d="M .19885 1.0288 C .20906 1.0901 .24846 1.1608 .31703 1.2411 C .3856 1.3213 .47023 1.3622 .5709 1.3636 C .62196 1.3636 .66866 1.3505 .71097 1.3242 C .75328 1.298 .78465 1.2651 .80507 1.2258 C .86635 1.3177 .94003 1.3636 1.0261 1.3636 C 1.0801 1.3636 1.1268 1.3476 1.1662 1.3155 C 1.2056 1.2834 1.226 1.2403 1.2275 1.1864 C 1.2275 1.144 1.2172 1.1098 1.1968 1.0835 C 1.1764 1.0572 1.1567 1.0412 1.1377 1.0354 C 1.1188 1.0295 1.102 1.0266 1.0874 1.0266 C 1.0597 1.0266 1.0371 1.0346 1.0195 1.0507 C 1.002 1.0667 .99329 1.0879 .99329 1.1141 C .99329 1.1813 1.0298 1.2272 1.1027 1.252 C 1.0867 1.271 1.0575 1.2805 1.0152 1.2805 C .9962 1.2805 .98234 1.279 .97359 1.2761 C .91815 1.2527 .87729 1.2046 .85103 1.1316 C .76349 .8092 .71972 .62099 .71972 .567 C .71972 .52615 .73139 .49697 .75474 .47946 C .77808 .46195 .80361 .4532 .83134 .4532 C .88532 .4532 .93857 .47727 .9911 .52542 C 1.0436 .57357 1.0794 .63266 1.0983 .70269 C 1.1027 .71728 1.1071 .72531 1.1115 .72677 C 1.1158 .72823 1.1275 .72968 1.1465 .73114 L 1.1552 .73114 C 1.1771 .73114 1.1881 .72531 1.1881 .71364 C 1.1881 .71218 1.1866 .70415 1.1837 .68956 C 1.1603 .6064 1.1151 .53272 1.048 .46852 C .98088 .40432 .90283 .37222 .81383 .37222 C .71169 .37222 .63437 .41818 .58184 .5101 C .52202 .41964 .45345 .37441 .37612 .37441 L .36299 .37441 C .2915 .37441 .24043 .39338 .20979 .43131 C .17915 .46925 .1631 .50937 .16164 .55168 C .16164 .59837 .1755 .63631 .20323 .66549 C .23095 .69467 .26378 .70926 .30171 .70926 C .36445 .70926 .39582 .67862 .39582 .61734 C .39582 .58816 .38706 .56263 .36955 .54074 C .35205 .51886 .33527 .50427 .31922 .49697 C .30317 .48968 .29369 .48603 .29077 .48603 L .2842 .48384 C .2842 .48238 .28858 .47946 .29733 .47509 C .30609 .47071 .31776 .4656 .33235 .45977 C .34694 .45393 .3608 .45174 .37393 .4532 C .42646 .4532 .47169 .48603 .50962 .55168 C .52275 .57503 .53953 .62463 .55996 .7005 C .58038 .77637 .60081 .85516 .62124 .93687 C .64166 1.0186 .65334 1.0667 .65625 1.0813 C .66355 1.1207 .6672 1.1492 .6672 1.1667 C .6672 1.2075 .65625 1.2367 .63437 1.2542 C .61248 1.2717 .58768 1.2805 .55996 1.2805 C .5016 1.2805 .44688 1.2571 .39582 1.2104 C .34475 1.1637 .309 1.1039 .28858 1.031 C .28566 1.0178 .28201 1.0105 .27764 1.0091 C .27326 1.0076 .26159 1.0062 .24262 1.0047 L .21198 1.0047 C .20323 1.0135 .19885 1.0215 .19885 1.0288 Z "/>
<path transform="matrix(10.079603,.000013255696,-.000018689775,-9.749915,166.88,134)" d="M 1.3771 .66373 C 1.3699 .67095 1.3663 .6761 1.3663 .6792 C 1.3663 .68333 1.3678 .69158 1.3709 .70396 C 1.374 .71633 1.3766 .72356 1.3787 .72562 C 1.3807 .73078 1.3854 .73335 1.3926 .73335 C 1.3998 .73335 1.4261 .73387 1.4715 .7349 L 1.5535 .7349 L 1.5829 .85869 C 1.586 .87003 1.5896 .88499 1.5937 .90356 C 1.5979 .92212 1.6015 .93553 1.6046 .94379 C 1.6077 .95204 1.6108 .96235 1.6139 .97473 C 1.6169 .98711 1.6211 .99588 1.6262 1.001 C 1.6314 1.0062 1.6365 1.0124 1.6417 1.0196 C 1.6469 1.0268 1.6541 1.0315 1.6634 1.0335 C 1.6726 1.0356 1.6819 1.0366 1.6912 1.0366 C 1.7098 1.0356 1.7227 1.0299 1.7299 1.0196 C 1.7371 1.0093 1.7407 .99949 1.7407 .99021 C 1.7407 .98298 1.7361 .95874 1.7268 .91748 C 1.7175 .87622 1.7072 .83548 1.6959 .79525 L 1.6804 .738 C 1.6804 .73593 1.7062 .7349 1.7578 .7349 L 1.8367 .7349 C 1.8439 .72768 1.8475 .72201 1.8475 .71788 C 1.8475 .69519 1.8408 .67714 1.8274 .66373 L 1.6618 .66373 L 1.6061 .43937 C 1.5659 .27432 1.5458 .18561 1.5458 .17323 C 1.5458 .12991 1.5597 .10825 1.5875 .10825 C 1.6237 .10825 1.6587 .12578 1.6928 .16086 C 1.7268 .19593 1.7541 .23925 1.7748 .29083 C 1.7768 .29702 1.7794 .30063 1.7825 .30166 C 1.7856 .30269 1.7933 .30372 1.8057 .30475 L 1.8119 .30475 C 1.8274 .30475 1.8351 .30063 1.8351 .29238 C 1.8351 .28928 1.8336 .28309 1.8305 .27381 C 1.8253 .2573 1.816 .23771 1.8026 .21501 C 1.7892 .19232 1.7717 .16808 1.75 .14229 C 1.7284 .1165 1.702 .094838 1.6711 .077302 C 1.6402 .059766 1.6087 .050998 1.5767 .050998 C 1.5458 .050998 1.5164 .058735 1.4885 .074208 C 1.4607 .089681 1.4406 .1165 1.4282 .15467 C 1.4261 .16292 1.4251 .17684 1.4251 .19644 L 1.4251 .2243 L 1.4792 .44092 C 1.5153 .58636 1.5339 .6596 1.5349 .66063 C 1.5349 .66269 1.5086 .66373 1.456 .66373 L 1.3771 .66373 Z "/>
</g>
</g>
<g id="Layer-1" data-name="P">
<path transform="matrix(1,0,0,-1,-139,374)" d="M 363.74 250.6 L 363.74 286.28 L 362.74 286.28 L 362.74 250.6 Z M 363.24 286.28 L 366.24 284.28 L 363.24 290.28 L 360.24 284.28 Z "/>
</g>
<g id="Layer-1" data-name="P">
<clipPath id="cp24">
<path transform="matrix(1,0,0,-1,-139,374)" d="M 395.4 240 L 430.8 240 L 430.8 254.16 L 395.4 254.16 Z " fill-rule="evenodd"/>
</clipPath>
<g clip-path="url(#cp24)">
<clipPath id="cp25">
<path transform="matrix(9.51529,.000007296081,-.000017336345,-9.04387,256.4,134)" d="M 0 0 L 3.7203 0 L 3.7203 1.5657 L 0 1.5657 Z " fill-rule="evenodd"/>
</clipPath>
<g clip-path="url(#cp25)">
<path transform="matrix(9.51529,.000007296081,-.000017336345,-9.04387,256.4,134)" d="M .15959 .85277 C .15959 1.0121 .22245 1.1553 .34816 1.2825 C .47386 1.4097 .6098 1.4733 .75598 1.4733 C .83783 1.4733 .90215 1.4557 .94892 1.4206 C .9957 1.3856 1.0198 1.3395 1.0213 1.2825 C 1.0213 1.2401 1.0074 1.2043 .97962 1.1751 C .95185 1.1458 .91676 1.1305 .87438 1.129 C .8466 1.129 .82468 1.1363 .8086 1.151 C .79252 1.1656 .78448 1.1875 .78448 1.2167 C .78448 1.246 .79252 1.2708 .8086 1.2913 C .82468 1.3117 .84076 1.3271 .85683 1.3373 C .87291 1.3476 .88315 1.3519 .88753 1.3505 L .88972 1.3505 C .88972 1.3534 .88534 1.3578 .87657 1.3636 C .8678 1.3695 .85245 1.3753 .83052 1.3812 C .8086 1.387 .78375 1.3899 .75598 1.3899 C .71212 1.3899 .67047 1.3797 .631 1.3593 C .6003 1.3461 .56888 1.3234 .53672 1.2913 C .4724 1.227 .42563 1.1363 .39639 1.0194 C .36716 .90247 .35181 .81769 .35035 .76506 C .35035 .69782 .36935 .6474 .40736 .61378 C .43951 .57869 .4819 .56115 .53452 .56115 L .5433 .56115 C .70701 .56115 .84222 .62328 .94892 .74752 C .96208 .76214 .97085 .76945 .97523 .76945 C .98108 .76945 .99058 .76287 1.0037 .74972 C 1.0169 .73656 1.0242 .72633 1.0257 .71902 C 1.0271 .71171 1.0205 .70075 1.0059 .68613 C .99131 .67151 .97012 .65105 .94235 .62474 C .91457 .59843 .88168 .5765 .84368 .55896 C .80567 .54142 .7589 .52315 .70335 .50415 C .64781 .48514 .58934 .4771 .52795 .48003 C .41832 .48003 .32988 .51511 .26264 .58527 C .19541 .65543 .16106 .7446 .15959 .85277 Z "/>
<path transform="matrix(9.51529,.000007296081,-.000017336345,-9.04387,256.4,134)" d="M 1.0747 .77207 C 1.0675 .7793 1.0639 .78447 1.0639 .78757 C 1.0639 .7917 1.0654 .79997 1.0685 .81237 C 1.0716 .82477 1.0742 .83201 1.0763 .83408 C 1.0784 .83924 1.083 .84183 1.0902 .84183 C 1.0975 .84183 1.1238 .84234 1.1693 .84338 L 1.2515 .84338 L 1.2809 .96739 C 1.284 .97876 1.2876 .99374 1.2918 1.0123 C 1.2959 1.0309 1.2995 1.0444 1.3026 1.0526 C 1.3057 1.0609 1.3088 1.0712 1.3119 1.0837 C 1.315 1.0961 1.3191 1.1048 1.3243 1.11 C 1.3295 1.1152 1.3346 1.1214 1.3398 1.1286 C 1.345 1.1358 1.3522 1.1405 1.3615 1.1426 C 1.3708 1.1446 1.3801 1.1457 1.3894 1.1457 C 1.408 1.1446 1.4209 1.1389 1.4282 1.1286 C 1.4354 1.1183 1.439 1.1085 1.439 1.0992 C 1.439 1.0919 1.4344 1.0676 1.4251 1.0263 C 1.4158 .98496 1.4054 .94414 1.3941 .90383 L 1.3786 .84648 C 1.3786 .84441 1.4044 .84338 1.4561 .84338 L 1.5351 .84338 C 1.5424 .83614 1.546 .83046 1.546 .82632 C 1.546 .80359 1.5393 .7855 1.5258 .77207 L 1.36 .77207 L 1.3042 .5473 C 1.2639 .38195 1.2437 .29307 1.2437 .28067 C 1.2437 .23727 1.2577 .21556 1.2856 .21556 C 1.3217 .21556 1.3569 .23313 1.391 .26827 C 1.4251 .30341 1.4525 .34681 1.4731 .39848 C 1.4752 .40468 1.4778 .4083 1.4809 .40933 C 1.484 .41037 1.4917 .4114 1.5041 .41243 L 1.5103 .41243 C 1.5258 .41243 1.5336 .4083 1.5336 .40003 C 1.5336 .39693 1.532 .39073 1.5289 .38143 C 1.5238 .36489 1.5145 .34526 1.501 .32252 C 1.4876 .29979 1.47 .2755 1.4483 .24967 C 1.4266 .22383 1.4003 .20213 1.3693 .18456 C 1.3383 .16699 1.3067 .15821 1.2747 .15821 C 1.2437 .15821 1.2143 .16596 1.1863 .18146 C 1.1584 .19696 1.1383 .22383 1.1259 .26207 C 1.1238 .27034 1.1228 .28429 1.1228 .30392 L 1.1228 .33183 L 1.177 .54885 C 1.2132 .69456 1.2318 .76793 1.2329 .76897 C 1.2329 .77104 1.2065 .77207 1.1538 .77207 L 1.0747 .77207 Z "/>
<path transform="matrix(9.51529,.000007296081,-.000017336345,-9.04387,256.4,134)" d="M 1.7243 .54265 C 1.7243 .54265 1.7243 .54936 1.7243 .5628 C 1.7243 .57623 1.7315 .58657 1.746 .5938 L 2.6466 .5938 C 2.6621 .58553 2.6698 .5752 2.6698 .5628 C 2.6698 .5504 2.6621 .54006 2.6466 .5318 L 1.746 .5318 C 1.7315 .53903 1.7243 .54936 1.7243 .5628 Z "/>
<path transform="matrix(9.51529,.000007296081,-.000017336345,-9.04387,256.4,134)" d="M 3.1302 1.0712 L 3.1101 1.0635 C 3.0956 1.0583 3.075 1.0532 3.0481 1.048 C 3.0212 1.0428 2.9912 1.0392 2.9582 1.0371 L 2.9287 1.0371 L 2.9287 1.1085 L 2.9582 1.1085 C 3.0067 1.1105 3.0517 1.1183 3.093 1.1317 C 3.1344 1.1451 3.1633 1.1575 3.1798 1.1689 C 3.1964 1.1803 3.2109 1.1916 3.2233 1.203 C 3.2253 1.2061 3.2315 1.2077 3.2419 1.2077 C 3.2512 1.2077 3.2599 1.2046 3.2682 1.1984 L 3.2682 .73487 L 3.2698 .26982 C 3.277 .26258 3.2832 .25793 3.2884 .25587 C 3.2935 .2538 3.3059 .25173 3.3256 .24967 C 3.3452 .2476 3.3772 .24657 3.4217 .24657 L 3.462 .24657 L 3.462 .17526 L 3.4449 .17526 C 3.4232 .17836 3.3411 .17991 3.1984 .17991 C 3.0579 .17991 2.9768 .17836 2.9551 .17526 L 2.9365 .17526 L 2.9365 .24657 L 2.9768 .24657 C 2.9995 .24657 3.0191 .24657 3.0357 .24657 C 3.0522 .24657 3.0651 .24708 3.0744 .24812 C 3.0837 .24915 3.092 .2507 3.0992 .25277 C 3.1065 .25483 3.1106 .25587 3.1116 .25587 C 3.1127 .25587 3.1158 .25845 3.1209 .26362 C 3.1261 .26879 3.1292 .27085 3.1302 .26982 L 3.1302 1.0712 Z "/>
</g>
</g>
</g>
<g id="Layer-1" data-name="P">
<path transform="matrix(1,0,0,-1,-139,374)" d="M 385.51 296.29 L 388.08 293.22 L 387.31 292.58 L 384.74 295.65 Z M 390 290.92 L 392.57 287.85 L 391.8 287.21 L 389.23 290.28 Z M 394.49 285.55 L 397.06 282.48 L 396.29 281.84 L 393.72 284.91 Z M 398.98 280.18 L 401.55 277.11 L 400.78 276.47 L 398.21 279.54 Z M 403.47 274.81 L 406.04 271.74 L 405.27 271.1 L 402.7 274.17 Z M 407.96 269.44 L 409.72 267.34 L 408.95 266.7 L 407.19 268.8 Z M 385.13 295.97 L 384.11 292.51 L 382.56 299.04 L 388.71 296.36 Z M 409.34 267.02 L 410.36 270.48 L 411.9 263.95 L 405.75 266.63 Z "/>
</g>
<g id="Layer-1" data-name="P">
<clipPath id="cp26">
<path transform="matrix(1,0,0,-1,-139,374)" d="M .000014305 0 L 960 0 L 960 540 L .000014305 540 Z " fill-rule="evenodd"/>
</clipPath>
<g clip-path="url(#cp26)">
<text xml:space="preserve" transform="matrix(1 0 -0 1 -139 374)" font-size="12" font-family="Cambria" font-style="italic"><tspan y="-284.88" x="403.2 408.6 413.988 420.34803 426.43205 431.01606 436.53608">exposed</tspan></text>
</g>
</g>
<g id="Layer-1" data-name="P">
<path transform="matrix(1,0,0,-1,-139,374)" stroke-width=".75" stroke-linecap="butt" stroke-linejoin="round" fill="none" stroke="#ffffff" d="M 474.96 172.44 L 603.48 172.44 L 603.48 223.32 L 474.96 223.32 Z "/>
</g>
<g id="Layer-1" data-name="Span">
<clipPath id="cp27">
<path transform="matrix(1,0,0,-1,-139,374)" d="M .000014305 0 L 960 0 L 960 540 L .000014305 540 Z " fill-rule="evenodd"/>
</clipPath>
<g clip-path="url(#cp27)">
<text xml:space="preserve" transform="matrix(1 0 -0 1 -139 374)" font-size="12" font-family="Cambria"><tspan y="-208.06" x="482.28 488.63999 494.52 501.636 511.416 514.05599 521.38796 527.26797 531.22799 537.084 539.628 548.86807 552.20407 556.2961">LSTM Gate with</tspan></text>
</g>
</g>
<g id="Layer-1" data-name="Span">
<clipPath id="cp28">
<path transform="matrix(1,0,0,-1,-139,374)" d="M .000014305 0 L 960 0 L 960 540 L .000014305 540 Z " fill-rule="evenodd"/>
</clipPath>
<g clip-path="url(#cp28)">
<text xml:space="preserve" transform="matrix(1 0 -0 1 -139 374)" font-size="12" font-family="Cambria"><tspan y="-193.66" x="482.28 492.6 498.97203 503.88 510.12 513.456 520.188">Working</tspan></text>
</g>
</g>
<g id="Layer-1" data-name="Span">
<clipPath id="cp29">
<path transform="matrix(1,0,0,-1,-139,374)" d="M .000014305 0 L 960 0 L 960 540 L .000014305 540 Z " fill-rule="evenodd"/>
</clipPath>
<g clip-path="url(#cp29)">
<text xml:space="preserve" transform="matrix(1 0 -0 1 -139 374)" font-size="12" font-family="Cambria"><tspan y="-193.66" x="528.72 538.548 544.404 554.388 560.76 565.668 571.668">Memory </tspan></text>
</g>
</g>
<g id="Layer-1" data-name="Span">
<clipPath id="cp30">
<path transform="matrix(1,0,0,-1,-139,374)" d="M .000014305 0 L 960 0 L 960 540 L .000014305 540 Z " fill-rule="evenodd"/>
</clipPath>
<g clip-path="url(#cp30)">
<text xml:space="preserve" transform="matrix(1 0 -0 1 -139 374)" font-size="12" font-family="Cambria"><tspan y="-179.26" x="482.28 489 495.372 502.06803 508.76405 514.668 519.96 524.01608 527.35208 533.72409">Connection</tspan></text>
</g>
</g>
<g id="Layer-1" data-name="P">
<path transform="matrix(1,0,0,-1,-139,374)" d="M 501.62 259.18 L 528.82 290.53 L 528.06 291.19 L 500.86 259.84 Z M 528.44 290.86 L 529.39 287.38 L 531.06 293.88 L 524.86 291.31 Z "/>
</g>
<g id="Layer-1" data-name="P">
<path transform="matrix(1,0,0,-1,-139,374)" d="M 586.27 259.19 L 559.95 290.5 L 560.72 291.14 L 587.04 259.83 Z M 560.33 290.82 L 559.32 287.36 L 557.76 293.88 L 563.92 291.22 Z "/>
</g>
<g id="Layer-1" data-name="P">
<path transform="matrix(1,0,0,-1,-139,374)" d="M 544.94 338.5 L 544.94 368 L 543.94 368 L 543.94 338.5 Z M 544.44 368 L 547.44 366 L 544.44 372 L 541.44 366 Z "/>
</g>
<g id="Layer-1" data-name="P">
<path transform="matrix(1,0,0,-1,-139,374)" stroke-width="1" stroke-linecap="butt" stroke-miterlimit="8" stroke-linejoin="miter" fill="none" stroke="#000000" d="M 520.32 314.4 C 520.32 327.72 531.09 338.52 544.38 338.52 C 557.67 338.52 568.44 327.72 568.44 314.4 C 568.44 301.08 557.67 290.28 544.38 290.28 C 531.09 290.28 520.32 301.08 520.32 314.4 Z "/>
</g>
<clipPath id="cp31">
<path transform="matrix(1,0,0,-1,-139,374)" d="M 536.04 306.48 L 553.68 306.48 L 553.68 320.64 L 536.04 320.64 Z " fill-rule="evenodd"/>
</clipPath>
<g clip-path="url(#cp31)">
<clipPath id="cp32">
<path transform="matrix(13.17414,.000020272044,-.000050089727,-13.065181,397.03999,67.51999)" d="M 0 0 L 1.339 0 L 1.339 1.0838 L 0 1.0838 Z " fill-rule="evenodd"/>
</clipPath>
<g clip-path="url(#cp32)">
<clipPath id="cp33">
<path transform="matrix(13.17414,.000020272044,-.000050089727,-13.065181,397.03999,67.51999)" d="M .085046 .038772 L 1.2850461 .038772 L 1.2850461 .99877199 L .085046 .99877199 Z " fill-rule="evenodd"/>
</clipPath>
<g clip-path="url(#cp33)">
<path transform="matrix(13.17414,.000020272044,-.000050089727,-13.065181,397.03999,67.51999)" d="M .47174 .054323 C .37646 .054323 .29941 .085847 .24056 .14889 C .18172 .21194 .1516 .2911 .15019 .38637 C .15019 .52648 .20133 .65678 .30361 .77727 C .40589 .89776 .52497 .96571 .66088 .98112 C .66228 .98252 .76035 .98322 .9551 .98322 L 1.2451 .98322 C 1.2465 .98182 1.2486 .98042 1.2514 .97902 C 1.2542 .97762 1.257 .97622 1.2598 .97481 C 1.2626 .97341 1.2647 .97201 1.2661 .97061 C 1.2675 .96921 1.2696 .96711 1.2724 .96431 C 1.2752 .9615 1.2766 .9601 1.2766 .9601 C 1.2766 .9601 1.278 .9573 1.2808 .9517 C 1.2836 .94609 1.2843 .94329 1.2829 .94329 C 1.2815 .94329 1.2822 .93979 1.285 .93278 C 1.2878 .92578 1.2885 .92157 1.2871 .92017 C 1.2871 .85853 1.2416 .8277 1.1505 .8277 C 1.1407 .8277 1.1288 .8277 1.1148 .8277 C 1.1008 .8277 1.091 .8284 1.0854 .82981 L .9593 .82981 L .96981 .80879 C .99503 .75555 1.0076 .696 1.0076 .63016 C 1.0076 .47604 .95159 .34154 .83951 .22665 C .72743 .11177 .60483 .054323 .47174 .054323 Z M .84371 .66168 C .84371 .77376 .78417 .82981 .66508 .82981 C .49135 .82981 .37857 .70791 .32673 .46413 C .32533 .45853 .32463 .45432 .32463 .45152 C .31342 .39968 .30781 .35695 .30781 .32333 C .30781 .25327 .32533 .20424 .36035 .17621 C .39538 .14819 .43531 .13348 .48014 .13208 C .5558 .13208 .62515 .16501 .6882 .23086 C .72883 .27289 .76175 .32893 .78697 .39898 C .81219 .46903 .8276 .52508 .83321 .56711 C .83881 .60914 .84231 .64066 .84371 .66168 Z "/>
</g>
</g>
</g>
<clipPath id="cp34">
<path transform="matrix(1,0,0,-1,-139,374)" d="M 526.8 231.48 L 563.04 231.48 L 563.04 249.59999 L 526.8 249.59999 Z " fill-rule="evenodd"/>
</clipPath>
<g clip-path="url(#cp34)">
<clipPath id="cp35">
<path transform="matrix(9.115809,.000006827847,-.0000265129,-8.849472,387.8,142.52)" d="M 0 0 L 3.9754 0 L 3.9754 2.0476 L 0 2.0476 Z " fill-rule="evenodd"/>
</clipPath>
<g clip-path="url(#cp35)">
<clipPath id="cp36">
<path transform="matrix(9.115809,.000006827847,-.0000265129,-8.849472,387.8,142.52)" d="M .085046 .042585 L 3.925046 .042585 L 3.925046 1.962585 L .085046 1.962585 Z " fill-rule="evenodd"/>
</clipPath>
<g clip-path="url(#cp36)">
<path transform="matrix(9.115809,.000006827847,-.0000265129,-8.849472,387.8,142.52)" d="M .39699 1.9392 C .39841 1.9392 .4495 1.9427 .55025 1.9498 C .65101 1.9569 .7028 1.9612 .70564 1.9626 C .72267 1.9626 .73118 1.9562 .73118 1.9434 C .73118 1.9278 .70564 1.8207 .65455 1.622 C .60063 1.412 .57367 1.3048 .57367 1.3006 C .57367 1.2978 .57863 1.3013 .58857 1.3112 C .67513 1.3879 .76737 1.4262 .86529 1.4262 C .94191 1.4262 1.0036 1.407 1.0505 1.3687 C 1.0973 1.3304 1.1214 1.2743 1.1228 1.2005 C 1.1228 1.1282 1.0959 1.0161 1.042 .86423 C .98804 .71239 .96107 .62157 .96107 .59177 C .96249 .5719 .96604 .55842 .97172 .55132 C .97739 .54423 .98804 .54068 1.0036 .54068 C 1.0434 .54068 1.0803 .56196 1.1143 .60454 C 1.1484 .64711 1.1761 .70529 1.1973 .77908 C 1.2016 .79469 1.2059 .80392 1.2101 .80675 C 1.2144 .80959 1.2257 .81101 1.2442 .81101 C 1.2726 .81101 1.2867 .80533 1.2867 .79398 C 1.2867 .79256 1.2839 .78192 1.2782 .76205 C 1.2555 .67833 1.2193 .6095 1.1697 .55558 C 1.1214 .49456 1.064 .46405 .99726 .46405 L .98662 .46405 C .91992 .46405 .87167 .48321 .84187 .52152 C .81207 .55984 .79717 .60028 .79717 .64285 C .79717 .66556 .82271 .74928 .8738 .89403 C .92489 1.0388 .95114 1.1473 .95256 1.2197 C .95256 1.3034 .92134 1.3453 .8589 1.3453 L .84826 1.3453 C .73047 1.3453 .6283 1.2758 .54174 1.1367 L .52684 1.109 L .45446 .82165 C .40906 .63718 .3828 .53642 .37571 .51939 C .35726 .48108 .32604 .46192 .28205 .46192 C .26218 .46192 .24515 .46831 .23096 .48108 C .21677 .49385 .20897 .50662 .20755 .51939 C .20755 .53926 .25934 .75496 .36293 1.1665 L .52045 1.7966 C .52045 1.815 .51549 1.8264 .50555 1.8306 C .49562 1.8349 .46795 1.8384 .42254 1.8413 L .37784 1.8413 C .36932 1.8498 .36506 1.8554 .36506 1.8583 C .36506 1.8611 .36648 1.8746 .36932 1.8987 C .37642 1.9257 .38564 1.9392 .39699 1.9392 Z "/>
</g>
<path transform="matrix(9.115809,.000006827847,-.0000265129,-8.849472,387.8,142.52)" d="M 1.3706 .74544 C 1.3636 .75246 1.36 .75748 1.36 .76049 C 1.36 .7645 1.3615 .77253 1.3646 .78457 C 1.3676 .79661 1.3701 .80363 1.3721 .80564 C 1.3741 .81065 1.3786 .81316 1.3856 .81316 C 1.3926 .81316 1.4182 .81366 1.4624 .81467 L 1.5421 .81467 L 1.5707 .93506 C 1.5737 .9461 1.5773 .96064 1.5813 .9787 C 1.5853 .99676 1.5888 1.0098 1.5918 1.0178 C 1.5948 1.0259 1.5978 1.0359 1.6008 1.0479 C 1.6038 1.06 1.6079 1.0685 1.6129 1.0735 C 1.6179 1.0785 1.6229 1.0845 1.6279 1.0916 C 1.6329 1.0986 1.64 1.1031 1.649 1.1051 C 1.658 1.1071 1.667 1.1081 1.6761 1.1081 C 1.6941 1.1071 1.7067 1.1016 1.7137 1.0916 C 1.7207 1.0815 1.7242 1.072 1.7242 1.063 C 1.7242 1.056 1.7197 1.0324 1.7107 .99225 C 1.7017 .95212 1.6916 .91249 1.6806 .87336 L 1.6655 .81768 C 1.6655 .81567 1.6906 .81467 1.7408 .81467 L 1.8175 .81467 C 1.8246 .80764 1.8281 .80213 1.8281 .79811 C 1.8281 .77604 1.8216 .75848 1.8085 .74544 L 1.6475 .74544 L 1.5933 .52723 C 1.5542 .3667 1.5346 .28042 1.5346 .26838 C 1.5346 .22624 1.5482 .20517 1.5752 .20517 C 1.6104 .20517 1.6445 .22223 1.6776 .25634 C 1.7107 .29045 1.7373 .33259 1.7573 .38275 C 1.7593 .38877 1.7619 .39228 1.7649 .39329 C 1.7679 .39429 1.7754 .39529 1.7874 .3963 L 1.7935 .3963 C 1.8085 .3963 1.816 .39228 1.816 .38426 C 1.816 .38125 1.8145 .37523 1.8115 .3662 C 1.8065 .35015 1.7975 .33109 1.7844 .30901 C 1.7714 .28694 1.7543 .26336 1.7333 .23828 C 1.7122 .2132 1.6866 .19213 1.6565 .17507 C 1.6264 .15802 1.5958 .14949 1.5647 .14949 C 1.5346 .14949 1.506 .15702 1.4789 .17206 C 1.4518 .18711 1.4323 .2132 1.4202 .25032 C 1.4182 .25835 1.4172 .27189 1.4172 .29095 L 1.4172 .31804 L 1.4699 .52873 C 1.505 .67019 1.5231 .74143 1.5241 .74243 C 1.5241 .74444 1.4985 .74544 1.4473 .74544 L 1.3706 .74544 Z "/>
<path transform="matrix(9.115809,.000006827847,-.0000265129,-8.849472,387.8,142.52)" d="M 2.0011 .52271 C 2.0011 .52271 2.0011 .52923 2.0011 .54228 C 2.0011 .55532 2.0082 .56535 2.0222 .57237 L 2.8966 .57237 C 2.9116 .56435 2.9191 .55431 2.9191 .54228 C 2.9191 .53024 2.9116 .5202 2.8966 .51218 L 2.0222 .51218 C 2.0082 .5192 2.0011 .52923 2.0011 .54228 Z "/>
<path transform="matrix(9.115809,.000006827847,-.0000265129,-8.849472,387.8,142.52)" d="M 3.3661 1.0359 L 3.3465 1.0284 C 3.3325 1.0233 3.3124 1.0183 3.2863 1.0133 C 3.2603 1.0083 3.2312 1.0048 3.1991 1.0028 L 3.1705 1.0028 L 3.1705 1.072 L 3.1991 1.072 C 3.2462 1.074 3.2899 1.0815 3.33 1.0946 C 3.3701 1.1076 3.3982 1.1197 3.4143 1.1307 C 3.4303 1.1417 3.4444 1.1528 3.4564 1.1638 C 3.4584 1.1668 3.4644 1.1683 3.4745 1.1683 C 3.4835 1.1683 3.492 1.1653 3.5 1.1593 L 3.5 .70932 L 3.5015 .25784 C 3.5086 .25082 3.5146 .24631 3.5196 .2443 C 3.5246 .24229 3.5367 .24029 3.5557 .23828 C 3.5748 .23627 3.6059 .23527 3.649 .23527 L 3.6882 .23527 L 3.6882 .16604 L 3.6716 .16604 C 3.6505 .16905 3.5708 .17056 3.4323 .17056 C 3.2959 .17056 3.2171 .16905 3.196 .16604 L 3.178 .16604 L 3.178 .23527 L 3.2171 .23527 C 3.2392 .23527 3.2583 .23527 3.2743 .23527 C 3.2904 .23527 3.3029 .23577 3.3119 .23678 C 3.321 .23778 3.329 .23928 3.336 .24129 C 3.343 .2433 3.347 .2443 3.348 .2443 C 3.349 .2443 3.3521 .24681 3.3571 .25183 C 3.3621 .25684 3.3651 .25885 3.3661 .25784 L 3.3661 1.0359 Z "/>
</g>
</g>
<g id="Layer-1" data-name="P">
<clipPath id="cp37">
<path transform="matrix(1,0,0,-1,-139,374)" d="M 487.08 240 L 507.71998 240 L 507.71998 254.16 L 487.08 254.16 Z " fill-rule="evenodd"/>
</clipPath>
<g clip-path="url(#cp37)">
<clipPath id="cp38">
<path transform="matrix(10.079603,.000013255696,-.00003737955,-9.749915,348.08,134)" d="M 0 0 L 2.0477 0 L 2.0477 1.4523 L 0 1.4523 Z " fill-rule="evenodd"/>
</clipPath>
<g clip-path="url(#cp38)">
<path transform="matrix(10.079603,.000013255696,-.00003737955,-9.749915,348.08,134)" d="M .19885 1.0288 C .20906 1.0901 .24846 1.1608 .31703 1.2411 C .3856 1.3213 .47023 1.3622 .5709 1.3636 C .62196 1.3636 .66866 1.3505 .71097 1.3242 C .75328 1.298 .78465 1.2651 .80507 1.2258 C .86635 1.3177 .94003 1.3636 1.0261 1.3636 C 1.0801 1.3636 1.1268 1.3476 1.1662 1.3155 C 1.2056 1.2834 1.226 1.2403 1.2275 1.1864 C 1.2275 1.144 1.2172 1.1098 1.1968 1.0835 C 1.1764 1.0572 1.1567 1.0412 1.1377 1.0354 C 1.1188 1.0295 1.102 1.0266 1.0874 1.0266 C 1.0597 1.0266 1.0371 1.0346 1.0195 1.0507 C 1.002 1.0667 .99329 1.0879 .99329 1.1141 C .99329 1.1813 1.0298 1.2272 1.1027 1.252 C 1.0867 1.271 1.0575 1.2805 1.0152 1.2805 C .9962 1.2805 .98234 1.279 .97359 1.2761 C .91815 1.2527 .87729 1.2046 .85103 1.1316 C .76349 .8092 .71972 .62099 .71972 .567 C .71972 .52615 .73139 .49697 .75474 .47946 C .77808 .46195 .80361 .4532 .83134 .4532 C .88532 .4532 .93857 .47727 .9911 .52542 C 1.0436 .57357 1.0794 .63266 1.0983 .70269 C 1.1027 .71728 1.1071 .72531 1.1115 .72677 C 1.1158 .72823 1.1275 .72968 1.1465 .73114 L 1.1552 .73114 C 1.1771 .73114 1.1881 .72531 1.1881 .71364 C 1.1881 .71218 1.1866 .70415 1.1837 .68956 C 1.1603 .6064 1.1151 .53272 1.048 .46852 C .98088 .40432 .90283 .37222 .81383 .37222 C .71169 .37222 .63437 .41818 .58184 .5101 C .52202 .41964 .45345 .37441 .37612 .37441 L .36299 .37441 C .2915 .37441 .24043 .39338 .20979 .43131 C .17915 .46925 .1631 .50937 .16164 .55168 C .16164 .59837 .1755 .63631 .20323 .66549 C .23095 .69467 .26378 .70926 .30171 .70926 C .36445 .70926 .39582 .67862 .39582 .61734 C .39582 .58816 .38706 .56263 .36955 .54074 C .35205 .51886 .33527 .50427 .31922 .49697 C .30317 .48968 .29369 .48603 .29077 .48603 L .2842 .48384 C .2842 .48238 .28858 .47946 .29733 .47509 C .30609 .47071 .31776 .4656 .33235 .45977 C .34694 .45393 .3608 .45174 .37393 .4532 C .42646 .4532 .47169 .48603 .50962 .55168 C .52275 .57503 .53953 .62463 .55996 .7005 C .58038 .77637 .60081 .85516 .62124 .93687 C .64166 1.0186 .65334 1.0667 .65625 1.0813 C .66355 1.1207 .6672 1.1492 .6672 1.1667 C .6672 1.2075 .65625 1.2367 .63437 1.2542 C .61248 1.2717 .58768 1.2805 .55996 1.2805 C .5016 1.2805 .44688 1.2571 .39582 1.2104 C .34475 1.1637 .309 1.1039 .28858 1.031 C .28566 1.0178 .28201 1.0105 .27764 1.0091 C .27326 1.0076 .26159 1.0062 .24262 1.0047 L .21198 1.0047 C .20323 1.0135 .19885 1.0215 .19885 1.0288 Z "/>
<path transform="matrix(10.079603,.000013255696,-.00003737955,-9.749915,348.08,134)" d="M 1.3771 .66373 C 1.3699 .67095 1.3663 .6761 1.3663 .6792 C 1.3663 .68333 1.3678 .69158 1.3709 .70396 C 1.374 .71633 1.3766 .72356 1.3787 .72562 C 1.3807 .73078 1.3854 .73335 1.3926 .73335 C 1.3998 .73335 1.4261 .73387 1.4715 .7349 L 1.5535 .7349 L 1.5829 .85869 C 1.586 .87003 1.5896 .88499 1.5937 .90356 C 1.5979 .92212 1.6015 .93553 1.6046 .94379 C 1.6077 .95204 1.6108 .96235 1.6139 .97473 C 1.6169 .98711 1.6211 .99588 1.6262 1.001 C 1.6314 1.0062 1.6365 1.0124 1.6417 1.0196 C 1.6469 1.0268 1.6541 1.0315 1.6634 1.0335 C 1.6726 1.0356 1.6819 1.0366 1.6912 1.0366 C 1.7098 1.0356 1.7227 1.0299 1.7299 1.0196 C 1.7371 1.0093 1.7407 .99949 1.7407 .99021 C 1.7407 .98298 1.7361 .95874 1.7268 .91748 C 1.7175 .87622 1.7072 .83548 1.6959 .79525 L 1.6804 .738 C 1.6804 .73593 1.7062 .7349 1.7578 .7349 L 1.8367 .7349 C 1.8439 .72768 1.8475 .72201 1.8475 .71788 C 1.8475 .69519 1.8408 .67714 1.8274 .66373 L 1.6618 .66373 L 1.6061 .43937 C 1.5659 .27432 1.5458 .18561 1.5458 .17323 C 1.5458 .12991 1.5597 .10825 1.5875 .10825 C 1.6237 .10825 1.6587 .12578 1.6928 .16086 C 1.7268 .19593 1.7541 .23925 1.7748 .29083 C 1.7768 .29702 1.7794 .30063 1.7825 .30166 C 1.7856 .30269 1.7933 .30372 1.8057 .30475 L 1.8119 .30475 C 1.8274 .30475 1.8351 .30063 1.8351 .29238 C 1.8351 .28928 1.8336 .28309 1.8305 .27381 C 1.8253 .2573 1.816 .23771 1.8026 .21501 C 1.7892 .19232 1.7717 .16808 1.75 .14229 C 1.7284 .1165 1.702 .094838 1.6711 .077302 C 1.6402 .059766 1.6087 .050998 1.5767 .050998 C 1.5458 .050998 1.5164 .058735 1.4885 .074208 C 1.4607 .089681 1.4406 .1165 1.4282 .15467 C 1.4261 .16292 1.4251 .17684 1.4251 .19644 L 1.4251 .2243 L 1.4792 .44092 C 1.5153 .58636 1.5339 .6596 1.5349 .66063 C 1.5349 .66269 1.5086 .66373 1.456 .66373 L 1.3771 .66373 Z "/>
</g>
</g>
</g>
<g id="Layer-1" data-name="P">
<path transform="matrix(1,0,0,-1,-139,374)" d="M 544.94 250.6 L 544.94 286.28 L 543.94 286.28 L 543.94 250.6 Z M 544.44 286.28 L 547.44 284.28 L 544.44 290.28 L 541.44 284.28 Z "/>
</g>
<g id="Layer-1" data-name="P">
<clipPath id="cp39">
<path transform="matrix(1,0,0,-1,-139,374)" d="M 583.2 176.4 L 618.60006 176.4 L 618.60006 190.56 L 583.2 190.56 Z " fill-rule="evenodd"/>
</clipPath>
<g clip-path="url(#cp39)">
<clipPath id="cp40">
<path transform="matrix(9.51529,.0000036383643,-.00003467269,-9.04387,444.2,197.6)" d="M 0 0 L 3.7203 0 L 3.7203 1.5657 L 0 1.5657 Z " fill-rule="evenodd"/>
</clipPath>
<g clip-path="url(#cp40)">
<path transform="matrix(9.51529,.0000036383643,-.00003467269,-9.04387,444.2,197.6)" d="M .15959 .85277 C .15959 1.0121 .22245 1.1553 .34816 1.2825 C .47386 1.4097 .6098 1.4733 .75598 1.4733 C .83783 1.4733 .90215 1.4557 .94892 1.4206 C .9957 1.3856 1.0198 1.3395 1.0213 1.2825 C 1.0213 1.2401 1.0074 1.2043 .97962 1.1751 C .95185 1.1458 .91676 1.1305 .87438 1.129 C .8466 1.129 .82468 1.1363 .8086 1.151 C .79252 1.1656 .78448 1.1875 .78448 1.2167 C .78448 1.246 .79252 1.2708 .8086 1.2913 C .82468 1.3117 .84076 1.3271 .85683 1.3373 C .87291 1.3476 .88315 1.3519 .88753 1.3505 L .88972 1.3505 C .88972 1.3534 .88534 1.3578 .87657 1.3636 C .8678 1.3695 .85245 1.3753 .83052 1.3812 C .8086 1.387 .78375 1.3899 .75598 1.3899 C .71212 1.3899 .67047 1.3797 .631 1.3593 C .6003 1.3461 .56888 1.3234 .53672 1.2913 C .4724 1.227 .42563 1.1363 .39639 1.0194 C .36716 .90247 .35181 .81769 .35035 .76506 C .35035 .69782 .36935 .6474 .40736 .61378 C .43951 .57869 .4819 .56115 .53452 .56115 L .5433 .56115 C .70701 .56115 .84222 .62328 .94892 .74752 C .96208 .76214 .97085 .76945 .97523 .76945 C .98108 .76945 .99058 .76287 1.0037 .74972 C 1.0169 .73656 1.0242 .72633 1.0257 .71902 C 1.0271 .71171 1.0205 .70075 1.0059 .68613 C .99131 .67151 .97012 .65105 .94235 .62474 C .91457 .59843 .88168 .5765 .84368 .55896 C .80567 .54142 .7589 .52315 .70335 .50415 C .64781 .48514 .58934 .4771 .52795 .48003 C .41832 .48003 .32988 .51511 .26264 .58527 C .19541 .65543 .16106 .7446 .15959 .85277 Z "/>
<path transform="matrix(9.51529,.0000036383643,-.00003467269,-9.04387,444.2,197.6)" d="M 1.0747 .77207 C 1.0675 .7793 1.0639 .78447 1.0639 .78757 C 1.0639 .7917 1.0654 .79997 1.0685 .81237 C 1.0716 .82477 1.0742 .83201 1.0763 .83408 C 1.0784 .83924 1.083 .84183 1.0902 .84183 C 1.0975 .84183 1.1238 .84234 1.1693 .84338 L 1.2515 .84338 L 1.2809 .96739 C 1.284 .97876 1.2876 .99374 1.2918 1.0123 C 1.2959 1.0309 1.2995 1.0444 1.3026 1.0526 C 1.3057 1.0609 1.3088 1.0712 1.3119 1.0837 C 1.315 1.0961 1.3191 1.1048 1.3243 1.11 C 1.3295 1.1152 1.3346 1.1214 1.3398 1.1286 C 1.345 1.1358 1.3522 1.1405 1.3615 1.1426 C 1.3708 1.1446 1.3801 1.1457 1.3894 1.1457 C 1.408 1.1446 1.4209 1.1389 1.4282 1.1286 C 1.4354 1.1183 1.439 1.1085 1.439 1.0992 C 1.439 1.0919 1.4344 1.0676 1.4251 1.0263 C 1.4158 .98496 1.4054 .94414 1.3941 .90383 L 1.3786 .84648 C 1.3786 .84441 1.4044 .84338 1.4561 .84338 L 1.5351 .84338 C 1.5424 .83614 1.546 .83046 1.546 .82632 C 1.546 .80359 1.5393 .7855 1.5258 .77207 L 1.36 .77207 L 1.3042 .5473 C 1.2639 .38195 1.2437 .29307 1.2437 .28067 C 1.2437 .23727 1.2577 .21556 1.2856 .21556 C 1.3217 .21556 1.3569 .23313 1.391 .26827 C 1.4251 .30341 1.4525 .34681 1.4731 .39848 C 1.4752 .40468 1.4778 .4083 1.4809 .40933 C 1.484 .41037 1.4917 .4114 1.5041 .41243 L 1.5103 .41243 C 1.5258 .41243 1.5336 .4083 1.5336 .40003 C 1.5336 .39693 1.532 .39073 1.5289 .38143 C 1.5238 .36489 1.5145 .34526 1.501 .32252 C 1.4876 .29979 1.47 .2755 1.4483 .24967 C 1.4266 .22383 1.4003 .20213 1.3693 .18456 C 1.3383 .16699 1.3067 .15821 1.2747 .15821 C 1.2437 .15821 1.2143 .16596 1.1863 .18146 C 1.1584 .19696 1.1383 .22383 1.1259 .26207 C 1.1238 .27034 1.1228 .28429 1.1228 .30392 L 1.1228 .33183 L 1.177 .54885 C 1.2132 .69456 1.2318 .76793 1.2329 .76897 C 1.2329 .77104 1.2065 .77207 1.1538 .77207 L 1.0747 .77207 Z "/>
<path transform="matrix(9.51529,.0000036383643,-.00003467269,-9.04387,444.2,197.6)" d="M 1.7243 .54265 C 1.7243 .54265 1.7243 .54936 1.7243 .5628 C 1.7243 .57623 1.7315 .58657 1.746 .5938 L 2.6466 .5938 C 2.6621 .58553 2.6698 .5752 2.6698 .5628 C 2.6698 .5504 2.6621 .54006 2.6466 .5318 L 1.746 .5318 C 1.7315 .53903 1.7243 .54936 1.7243 .5628 Z "/>
<path transform="matrix(9.51529,.0000036383643,-.00003467269,-9.04387,444.2,197.6)" d="M 3.1302 1.0712 L 3.1101 1.0635 C 3.0956 1.0583 3.075 1.0532 3.0481 1.048 C 3.0212 1.0428 2.9912 1.0392 2.9582 1.0371 L 2.9287 1.0371 L 2.9287 1.1085 L 2.9582 1.1085 C 3.0067 1.1105 3.0517 1.1183 3.093 1.1317 C 3.1344 1.1451 3.1633 1.1575 3.1798 1.1689 C 3.1964 1.1803 3.2109 1.1916 3.2233 1.203 C 3.2253 1.2061 3.2315 1.2077 3.2419 1.2077 C 3.2512 1.2077 3.2599 1.2046 3.2682 1.1984 L 3.2682 .73487 L 3.2698 .26982 C 3.277 .26258 3.2832 .25793 3.2884 .25587 C 3.2935 .2538 3.3059 .25173 3.3256 .24967 C 3.3452 .2476 3.3772 .24657 3.4217 .24657 L 3.462 .24657 L 3.462 .17526 L 3.4449 .17526 C 3.4232 .17836 3.3411 .17991 3.1984 .17991 C 3.0579 .17991 2.9768 .17836 2.9551 .17526 L 2.9365 .17526 L 2.9365 .24657 L 2.9768 .24657 C 2.9995 .24657 3.0191 .24657 3.0357 .24657 C 3.0522 .24657 3.0651 .24708 3.0744 .24812 C 3.0837 .24915 3.092 .2507 3.0992 .25277 C 3.1065 .25483 3.1106 .25587 3.1116 .25587 C 3.1127 .25587 3.1158 .25845 3.1209 .26362 C 3.1261 .26879 3.1292 .27085 3.1302 .26982 L 3.1302 1.0712 Z "/>
</g>
</g>
</g>
<g id="Layer-1" data-name="P">
<path transform="matrix(1,0,0,-1,-139,374)" d="M 566.71 296.29 L 569.28 293.22 L 568.51 292.58 L 565.94 295.65 Z M 571.2 290.92 L 573.77 287.85 L 573 287.21 L 570.43 290.28 Z M 575.69 285.55 L 578.26 282.48 L 577.49 281.84 L 574.92 284.91 Z M 580.18 280.18 L 582.75 277.11 L 581.98 276.47 L 579.41 279.54 Z M 584.67 274.81 L 587.24 271.74 L 586.47 271.1 L 583.9 274.17 Z M 589.16 269.44 L 590.92 267.34 L 590.15 266.7 L 588.39 268.8 Z M 566.33 295.97 L 565.31 292.51 L 563.76 299.04 L 569.91 296.36 Z M 590.54 267.02 L 591.56 270.48 L 593.1 263.95 L 586.95 266.63 Z "/>
</g>
<g id="Layer-1" data-name="P">
<clipPath id="cp41">
<path transform="matrix(1,0,0,-1,-139,374)" d="M .000014305 0 L 960 0 L 960 540 L .000014305 540 Z " fill-rule="evenodd"/>
</clipPath>
<g clip-path="url(#cp41)">
<text xml:space="preserve" transform="matrix(1 0 -0 1 -139 374)" font-size="12" font-family="Cambria" font-style="italic"><tspan y="-284.88" x="584.42 590.74398 595.57998 601.66397 605.80398 611.28799 616.48397 620.54 626.048">protected</tspan></text>
</g>
</g>
<g id="Layer-1" data-name="P">
<path transform="matrix(1,0,0,-1,-139,374)" stroke-width="1" stroke-linecap="butt" stroke-miterlimit="8" stroke-linejoin="miter" fill="none" stroke="#000000" d="M 582.24 246.66 C 582.24 256.83 590.49 265.08 600.66 265.08 C 610.83 265.08 619.08 256.83 619.08 246.66 C 619.08 236.49 610.83 228.24 600.66 228.24 C 590.49 228.24 582.24 236.49 582.24 246.66 Z "/>
</g>
<g id="Layer-1" data-name="P">
<path transform="matrix(1,0,0,-1,-139,374)" stroke-width="1" stroke-linecap="butt" stroke-miterlimit="8" stroke-linejoin="miter" fill="none" stroke="#000000" d="M 583.68 240.48 C 588.43 240.51 593.18 240.55 596.6 242.33 C 600.02 244.11 600.72 249.43 604.22 251.18 C 607.73 252.93 612.68 252.87 617.64 252.82 "/>
</g>
<g id="Layer-1" data-name="P">
<path transform="matrix(1,0,0,-1,-139,374)" d="M 596.78 192.08 L 596.78 224.36 L 595.78 224.36 L 595.78 192.08 Z M 596.28 224.36 L 599.28 222.36 L 596.28 228.36 L 593.28 222.36 Z "/>
</g>
<g id="Layer-1" data-name="P">
<path transform="matrix(1,0,0,-1,-139,374)" d="M 606.14 224.36 L 606.14 220.36 L 605.14 220.36 L 605.14 224.36 Z M 606.14 217.36 L 606.14 213.36 L 605.14 213.36 L 605.14 217.36 Z M 606.14 210.36 L 606.14 206.36 L 605.14 206.36 L 605.14 210.36 Z M 606.14 203.36 L 606.14 199.36 L 605.14 199.36 L 605.14 203.36 Z M 606.14 196.36 L 606.14 195.51 L 605.14 195.51 L 605.14 196.36 Z M 605.64 224.36 L 602.64 222.36 L 605.64 228.36 L 608.64 222.36 Z M 605.64 195.51 L 608.64 197.51 L 605.64 191.51 L 602.64 197.51 Z "/>
</g>
</g>
</g>
</svg>
